<svg xmlns="http://www.w3.org/2000/svg" viewBox="0 0 64 64">
  <rect width="64" height="64" rx="8" fill="#3B82F6"/>

  <!-- Grid of dots representing weeks -->
  <g fill="#FFFFFF" opacity="0.4">
    <circle cx="12" cy="12" r="2.5"/>
    <circle cx="20" cy="12" r="2.5"/>
    <circle cx="28" cy="12" r="2.5"/>
    <circle cx="36" cy="12" r="2.5"/>
    <circle cx="44" cy="12" r="2.5"/>
    <circle cx="52" cy="12" r="2.5"/>

    <circle cx="12" cy="20" r="2.5"/>
    <circle cx="20" cy="20" r="2.5"/>
    <circle cx="28" cy="20" r="2.5"/>
    <circle cx="36" cy="20" r="2.5"/>
    <circle cx="44" cy="20" r="2.5"/>
    <circle cx="52" cy="20" r="2.5"/>

    <circle cx="12" cy="28" r="2.5"/>
    <circle cx="20" cy="28" r="2.5"/>
    <circle cx="28" cy="28" r="2.5"/>
    <circle cx="36" cy="28" r="2.5"/>
    <circle cx="44" cy="28" r="2.5"/>
    <circle cx="52" cy="28" r="2.5"/>

    <circle cx="12" cy="36" r="2.5"/>
    <circle cx="20" cy="36" r="2.5"/>
    <circle cx="28" cy="36" r="2.5"/>
    <circle cx="36" cy="36" r="2.5"/>
    <circle cx="44" cy="36" r="2.5"/>
    <circle cx="52" cy="36" r="2.5"/>

    <circle cx="12" cy="44" r="2.5"/>
    <circle cx="20" cy="44" r="2.5"/>
    <circle cx="28" cy="44" r="2.5"/>
    <circle cx="36" cy="44" r="2.5"/>
    <circle cx="44" cy="44" r="2.5"/>
    <circle cx="52" cy="44" r="2.5"/>

    <circle cx="12" cy="52" r="2.5"/>
    <circle cx="20" cy="52" r="2.5"/>
    <circle cx="28" cy="52" r="2.5"/>
    <circle cx="36" cy="52" r="2.5"/>
    <circle cx="44" cy="52" r="2.5"/>
    <circle cx="52" cy="52" r="2.5"/>
  </g>

  <!-- Highlighted dots (past weeks) -->
  <g fill="#FFFFFF">
    <circle cx="12" cy="12" r="2.5"/>
    <circle cx="20" cy="12" r="2.5"/>
    <circle cx="28" cy="12" r="2.5"/>
    <circle cx="36" cy="12" r="2.5"/>

    <circle cx="12" cy="20" r="2.5"/>
    <circle cx="20" cy="20" r="2.5"/>
  </g>

  <!-- Current week (yellow dot) -->
  <circle cx="28" cy="20" r="2.5" fill="#FCD34D"/>
</svg>
