<svg xmlns="http://www.w3.org/2000/svg" viewBox="0 0 192 192">
  <rect width="192" height="192" rx="24" fill="#3B82F6"/>

  <!-- Grid of dots representing weeks (6x6 grid) -->
  <g fill="#FFFFFF" opacity="0.3">
    <circle cx="36" cy="36" r="8"/>
    <circle cx="60" cy="36" r="8"/>
    <circle cx="84" cy="36" r="8"/>
    <circle cx="108" cy="36" r="8"/>
    <circle cx="132" cy="36" r="8"/>
    <circle cx="156" cy="36" r="8"/>

    <circle cx="36" cy="60" r="8"/>
    <circle cx="60" cy="60" r="8"/>
    <circle cx="84" cy="60" r="8"/>
    <circle cx="108" cy="60" r="8"/>
    <circle cx="132" cy="60" r="8"/>
    <circle cx="156" cy="60" r="8"/>

    <circle cx="36" cy="84" r="8"/>
    <circle cx="60" cy="84" r="8"/>
    <circle cx="84" cy="84" r="8"/>
    <circle cx="108" cy="84" r="8"/>
    <circle cx="132" cy="84" r="8"/>
    <circle cx="156" cy="84" r="8"/>

    <circle cx="36" cy="108" r="8"/>
    <circle cx="60" cy="108" r="8"/>
    <circle cx="84" cy="108" r="8"/>
    <circle cx="108" cy="108" r="8"/>
    <circle cx="132" cy="108" r="8"/>
    <circle cx="156" cy="108" r="8"/>

    <circle cx="36" cy="132" r="8"/>
    <circle cx="60" cy="132" r="8"/>
    <circle cx="84" cy="132" r="8"/>
    <circle cx="108" cy="132" r="8"/>
    <circle cx="132" cy="132" r="8"/>
    <circle cx="156" cy="132" r="8"/>

    <circle cx="36" cy="156" r="8"/>
    <circle cx="60" cy="156" r="8"/>
    <circle cx="84" cy="156" r="8"/>
    <circle cx="108" cy="156" r="8"/>
    <circle cx="132" cy="156" r="8"/>
    <circle cx="156" cy="156" r="8"/>
  </g>

  <!-- Highlighted dots (past weeks) -->
  <g fill="#FFFFFF">
    <circle cx="36" cy="36" r="8"/>
    <circle cx="60" cy="36" r="8"/>
    <circle cx="84" cy="36" r="8"/>
    <circle cx="108" cy="36" r="8"/>
    <circle cx="132" cy="36" r="8"/>

    <circle cx="36" cy="60" r="8"/>
    <circle cx="60" cy="60" r="8"/>
    <circle cx="84" cy="60" r="8"/>
  </g>

  <!-- Current week (yellow dot) -->
  <circle cx="108" cy="60" r="8" fill="#FCD34D"/>
</svg>
